# xmcd
#
# Track frame offsets:
#	150
#	20140
#	47902
#	63657
#	84957
#	113075
#	128412
#	144110
#	163407
#	180920
#	208857
#	224422
#	242310
#	256770
#	273797
#	289572
#	308952
#
# Disc length: 4401 seconds
#
# Revision: 1
# Processed by: cddbd v1.5.2PL0 Copyright (c) Steve Scherf et al.
# Submitted via: audiograbber 1.83.01
#
DISCID=eb112f11
DTITLE=Laury Browning - Prayers and Promises - Thursday's Child
DYEAR=1990
DGENRE=Gospel
TTITLE0=With One Voice
TTITLE1=Oh Lord Let It Be
TTITLE2=Mother's Prayer
TTITLE3=Thank You Father
TTITLE4=I Desire Nothing Less
TTITLE5=Lord Teach Us To Love You
TTITLE6=O Yeah (The Lord Is Good)
TTITLE7=I Will Bless The Lord
TTITLE8=Lead Me In Your Ways
TTITLE9=You Called Me Friend
TTITLE10=Your's Alone
TTITLE11=Come Lift Him Up
TTITLE12=Follow You
TTITLE13=Heartdoor
TTITLE14=In Times Like These
TTITLE15=Take The Love
TTITLE16=Carpenter
EXTD=
EXTT0=
EXTT1=
EXTT2=
EXTT3=
EXTT4=
EXTT5=
EXTT6=
EXTT7=
EXTT8=
EXTT9=
EXTT10=
EXTT11=
EXTT12=
EXTT13=
EXTT14=
EXTT15=
EXTT16=
PLAYORDER=
